<?xml version="1.0" encoding="UTF-8" standalone="no"?>
<svg
   width="187"
   height="60"
   viewBox="0 0 187 60"
   fill="none"
   version="1.1"
   id="svg610"
   sodipodi:docname="logo-3.svg"
   inkscape:version="1.2.1 (9c6d41e, 2022-07-14)"
   xmlns:inkscape="http://www.inkscape.org/namespaces/inkscape"
   xmlns:sodipodi="http://sodipodi.sourceforge.net/DTD/sodipodi-0.dtd"
   xmlns:xlink="http://www.w3.org/1999/xlink"
   xmlns="http://www.w3.org/2000/svg"
   xmlns:svg="http://www.w3.org/2000/svg">
  <sodipodi:namedview
     id="namedview612"
     pagecolor="#ffffff"
     bordercolor="#000000"
     borderopacity="0.25"
     inkscape:showpageshadow="2"
     inkscape:pageopacity="0.0"
     inkscape:pagecheckerboard="0"
     inkscape:deskcolor="#d1d1d1"
     showgrid="false"
     inkscape:zoom="3.9333333"
     inkscape:cx="55.805085"
     inkscape:cy="30.508475"
     inkscape:window-width="1512"
     inkscape:window-height="916"
     inkscape:window-x="0"
     inkscape:window-y="38"
     inkscape:window-maximized="1"
     inkscape:current-layer="svg610" />
  <path
     d="M0 30C0 20.6812 0 16.0218 1.52241 12.3463C3.55229 7.44577 7.44577 3.55229 12.3463 1.52241C16.0218 0 20.6812 0 30 0V0C39.3188 0 43.9782 0 47.6537 1.52241C52.5542 3.55229 56.4477 7.44577 58.4776 12.3463C60 16.0218 60 20.6812 60 30V30C60 39.3188 60 43.9782 58.4776 47.6537C56.4477 52.5542 52.5542 56.4477 47.6537 58.4776C43.9782 60 39.3188 60 30 60V60C20.6812 60 16.0218 60 12.3463 58.4776C7.44577 56.4477 3.55229 52.5542 1.52241 47.6537C0 43.9782 0 39.3188 0 30V30Z"
     fill="white"
     id="path592" />
  <g
     id="g11502"
     transform="matrix(0.09655729,-0.03999534,-0.04118433,-0.09942778,5.2335378,74.429238)">
    <g
       id="g11500"
       clip-path="url(#clipPath359-2-4)">
      <g
         id="g11498"
         transform="translate(378.1947,293.8297)">
        <path
           d="M 32.787423,-0.76966114 V -99.17323 c 36.73842,11.694146 63.425349,46.139083 63.426065,86.702252 2e-6,40.561057 -26.688333,75.008075 -63.426062,86.7015 m -55.071599,32.559948 c -36.73775,-11.693405 -63.428195,-46.140828 -63.427479,-86.702602 0,-40.562475 26.689746,-75.009182 63.428186,-86.703314 z M -140.78186,20.08717 c -7e-4,80.52319 65.509912,146.0324 146.0331107,146.03311 l 27.5354593,-7.2e-4 6.94e-4,-35.16353 C 100.18884,118.04143 151.28435,58.639842 151.28435,-12.472469 151.28365,-92.994248 85.772323,-158.50422 5.2526579,-158.50422 H -22.283494 l -6.93e-4,35.16397 C -89.68773,-110.42777 -140.78257,-51.024444 -140.78186,20.08717"
           style="fill:url(#linearGradient11504);fill-opacity:1;fill-rule:nonzero;stroke:none"
           id="path11496"
           sodipodi:nodetypes="ccsccsccccccssccc" />
      </g>
    </g>
  </g>
  <text
     xml:space="preserve"
     transform="matrix(0.53037844,0,0,0.53037844,-1865.3257,-113.00747)"
     id="text13507-8"
     style="font-style:normal;font-variant:normal;font-weight:800;font-stretch:normal;font-size:60px;font-family:'Brutal Type';-inkscape-font-specification:'Brutal Type Ultra-Bold';white-space:pre;shape-inside:url(#rect13509-4);fill:#ffffff;fill-opacity:1;stroke:none;stroke-width:1.333;stroke-dasharray:none;stroke-opacity:1"><tspan
       x="3665.9395"
       y="289.47969"
       id="tspan1960">ovanim</tspan></text>
  <defs
     id="defs608">
    <linearGradient
       id="paint0_linear"
       x1="22.7306"
       y1="17.2023"
       x2="42.6758"
       y2="32.9132"
       gradientUnits="userSpaceOnUse">
      <stop
         stop-color="#5D59EA"
         id="stop600" />
      <stop
         offset="1"
         stop-color="#9A91FF"
         id="stop602" />
    </linearGradient>
    <clipPath
       id="clip0">
      <rect
         width="32"
         height="31"
         fill="white"
         transform="translate(14 14)"
         id="rect605" />
    </clipPath>
    <clipPath
       clipPathUnits="userSpaceOnUse"
       id="clipPath359-2-4">
      <path
         d="M 0,595.276 H 841.89 V 0 H 0 Z"
         id="path357-9-8" />
    </clipPath>
    <linearGradient
       inkscape:collect="always"
       xlink:href="#linearGradient9205"
       id="linearGradient11504"
       gradientUnits="userSpaceOnUse"
       x1="-140.78186"
       y1="3.8080299"
       x2="151.28435"
       y2="3.8080299" />
    <linearGradient
       inkscape:collect="always"
       id="linearGradient9205">
      <stop
         style="stop-color:#0f2027;stop-opacity:1;"
         offset="0"
         id="stop9195" />
      <stop
         style="stop-color:#203a43;stop-opacity:1;"
         offset="0.49778748"
         id="stop9209" />
      <stop
         style="stop-color:#2c5364;stop-opacity:1;"
         offset="1"
         id="stop9211" />
    </linearGradient>
    <rect
       x="3665.9397"
       y="233.68002"
       width="265.25558"
       height="75.616043"
       id="rect13509-4" />
  </defs>
</svg>
